<?xml version="1.0" standalone="no"?>
<!DOCTYPE svg PUBLIC "-//W3C//DTD SVG 20010904//EN"
 "http://www.w3.org/TR/2001/REC-SVG-20010904/DTD/svg10.dtd">
<svg version="1.0" xmlns="http://www.w3.org/2000/svg"
 width="512.000000pt" height="512.000000pt" viewBox="0 0 512.000000 512.000000"
 preserveAspectRatio="xMidYMid meet">
<metadata>
Created by potrace 1.14, written by Peter Selinger 2001-2017
</metadata>
<g transform="translate(0.000000,512.000000) scale(0.100000,-0.100000)"
fill="#000000" stroke="none">
<path d="M2385 5110 c-196 -29 -333 -72 -496 -156 -411 -213 -698 -619 -765
-1084 -12 -78 -12 -89 -13 -362 l-1 -268 -34 0 c-47 0 -143 -31 -193 -63 -80
-51 -142 -130 -179 -227 -14 -38 -18 -92 -20 -335 -1 -159 -3 -295 -3 -300 -1
-7 -85 -11 -238 -11 -270 -1 -300 -7 -373 -83 -70 -72 -71 -78 -68 -617 3
-476 3 -479 26 -522 35 -67 83 -108 154 -131 25 -8 113 -12 268 -12 126 0 230
-3 231 -7 0 -4 1 -137 3 -297 3 -318 7 -343 66 -435 56 -88 146 -154 250 -184
49 -15 209 -16 1585 -14 l1530 3 76 37 c126 62 213 174 237 308 6 30 10 165
10 300 0 135 1 255 1 267 1 21 2 21 254 25 279 3 281 4 349 72 75 75 73 55 76
590 3 527 2 535 -58 608 -17 20 -56 49 -87 64 l-56 28 -233 1 c-128 0 -236 4
-240 7 -3 4 -7 139 -9 300 -2 309 -3 317 -53 414 -29 55 -113 136 -175 168
-29 14 -79 31 -112 37 -33 7 -66 13 -72 15 -10 3 -13 64 -14 261 0 142 -2 272
-4 288 -15 141 -39 250 -80 365 -124 343 -378 632 -703 799 -88 44 -239 104
-295 115 -12 3 -58 12 -102 22 -87 18 -354 26 -440 14z m355 -175 c123 -20
136 -23 232 -55 315 -105 578 -336 734 -643 37 -73 99 -248 108 -307 3 -19 9
-46 12 -60 4 -14 9 -160 11 -326 l5 -301 -171 0 -171 0 -1 241 c0 133 -2 248
-3 256 -2 8 -6 41 -10 72 -7 69 -49 205 -83 273 -132 262 -387 453 -678 508
-96 18 -271 15 -365 -6 -264 -60 -492 -231 -623 -467 -42 -76 -94 -230 -103
-304 -4 -28 -8 -58 -10 -66 -1 -8 -3 -126 -3 -261 l-1 -246 -171 0 -170 1 2
273 c1 168 7 300 15 345 7 40 15 87 18 105 16 88 85 251 154 368 147 247 403
452 683 546 184 62 408 82 589 54z m18 -525 c212 -58 393 -205 485 -393 44
-90 53 -118 76 -233 4 -23 8 -154 7 -290 l-1 -249 -768 -1 -768 -1 1 246 c1
161 6 270 15 316 54 282 244 501 512 591 140 47 301 52 441 14z m1378 -1372
c23 -15 56 -44 73 -65 53 -64 59 -107 58 -403 l-2 -265 -1695 -1 c-932 0
-1700 1 -1706 3 -8 3 -11 87 -10 286 2 266 3 285 23 327 12 25 28 52 35 60 22
26 81 67 113 78 21 7 505 10 1550 9 l1520 -2 41 -27z m757 -911 c56 -15 57
-24 57 -512 l0 -447 -29 -29 -29 -29 -2326 0 c-1683 0 -2332 3 -2349 11 -14 6
-30 22 -36 36 -8 16 -11 163 -11 466 1 484 1 482 59 502 35 11 4617 13 4664 2z
m-627 -1462 c1 -319 -3 -343 -75 -415 -87 -87 50 -80 -1631 -80 -1644 0 -1536
-4 -1616 64 -22 18 -50 55 -64 82 -25 49 -25 51 -26 336 l0 288 1705 -3 1706
-2 1 -270z"/>
<path d="M1054 2877 l-29 -25 -1 -149 c0 -81 3 -160 8 -175 11 -31 61 -58 92
-49 62 18 73 46 71 174 l-1 77 92 0 c51 0 104 5 117 11 47 21 60 86 27 129
-19 25 -21 25 -183 28 -162 3 -165 3 -193 -21z"/>
<path d="M625 1935 c-25 -24 -27 -34 -27 -107 0 -21 -3 -38 -8 -38 -4 0 -38
21 -76 46 -56 38 -73 45 -99 40 -45 -10 -70 -39 -70 -87 0 -45 7 -52 113 -120
34 -22 62 -43 62 -47 0 -4 -36 -31 -81 -61 -49 -32 -84 -63 -90 -79 -22 -58
19 -116 81 -114 16 0 55 18 87 40 32 21 63 41 69 45 8 5 12 -10 12 -46 0 -72
8 -95 42 -112 40 -21 65 -19 96 9 24 20 28 32 32 89 l4 66 69 -46 c78 -52 117
-58 154 -23 28 27 34 46 24 85 -7 23 -29 44 -94 88 l-86 59 83 56 c65 45 85
65 94 92 9 27 9 41 -1 61 -14 25 -49 47 -72 43 -7 -1 -19 -2 -26 -3 -8 0 -42
-19 -76 -41 -34 -22 -64 -40 -66 -40 -3 0 -5 20 -5 44 0 53 -14 94 -38 112
-28 22 -80 17 -107 -11z"/>
<path d="M1565 1937 c-24 -20 -27 -31 -28 -89 -1 -36 -5 -64 -9 -62 -4 3 -37
25 -75 49 -77 51 -112 53 -150 9 -47 -52 -26 -96 76 -163 45 -30 81 -56 81
-60 0 -3 -34 -28 -76 -55 -91 -60 -109 -83 -100 -131 5 -26 16 -42 39 -55 42
-26 54 -22 188 63 l29 19 -4 -43 c-4 -49 8 -102 28 -118 8 -7 30 -14 48 -18
27 -4 41 0 63 19 29 25 29 28 34 146 1 8 28 -5 68 -33 77 -54 120 -61 159 -24
28 26 32 73 9 106 -9 12 -47 43 -86 69 -38 26 -72 50 -74 54 -3 4 22 24 54 44
90 55 121 88 121 128 -1 49 -32 81 -79 81 -28 0 -54 -11 -99 -42 -33 -22 -65
-41 -69 -41 -4 0 -8 27 -8 59 0 49 -5 65 -25 85 -30 33 -79 34 -115 3z"/>
<path d="M2501 1933 c-24 -25 -27 -35 -26 -85 0 -32 -3 -58 -8 -58 -4 0 -35
18 -68 40 -78 53 -113 58 -150 20 -30 -30 -37 -66 -19 -100 5 -10 46 -42 90
-71 44 -29 80 -55 80 -59 0 -3 -34 -27 -76 -54 -84 -55 -104 -78 -104 -118 0
-32 37 -76 65 -79 41 -3 54 2 119 45 36 25 66 42 67 38 1 -4 2 -30 3 -58 3
-83 46 -126 111 -110 35 9 58 50 61 109 1 29 3 55 3 60 1 4 24 -9 53 -29 82
-58 108 -66 149 -46 19 10 38 29 43 45 17 48 -2 77 -91 137 -45 30 -82 57 -82
60 -1 3 36 29 80 59 44 30 84 62 89 72 26 48 -8 115 -64 125 -22 4 -42 -4 -80
-29 -28 -18 -62 -41 -76 -50 l-25 -16 -1 66 c0 59 -3 68 -28 89 -37 33 -80 31
-115 -3z"/>
<path d="M3440 1935 c-17 -18 -24 -38 -26 -81 -1 -31 -5 -58 -8 -61 -2 -3 -31
13 -63 35 -70 48 -93 55 -125 43 -39 -15 -58 -40 -58 -74 0 -46 19 -67 105
-123 41 -26 75 -51 75 -54 0 -3 -28 -23 -62 -45 -101 -65 -118 -82 -118 -120
0 -46 35 -86 77 -87 23 -1 53 13 103 46 56 37 70 43 71 29 3 -99 7 -117 33
-140 35 -30 76 -29 110 2 26 24 29 36 28 113 l-1 43 27 -17 c83 -56 136 -82
154 -79 34 7 67 34 74 60 12 48 -9 78 -94 135 -45 30 -81 58 -82 62 0 3 28 24
63 47 94 61 107 73 113 112 5 28 1 41 -19 64 -36 43 -80 39 -158 -13 -34 -23
-65 -42 -68 -42 -3 0 -7 28 -7 62 -2 54 -6 65 -29 85 -36 31 -85 30 -115 -2z"/>
<path d="M4133 1435 c-47 -33 -44 -118 6 -144 13 -7 119 -11 301 -11 l282 0
29 29 c31 31 36 55 18 94 -20 44 -43 47 -337 47 -229 0 -281 -3 -299 -15z"/>
</g>
</svg>
